<?xml version="1.0" standalone="no"?>
<!DOCTYPE svg PUBLIC "-//W3C//DTD SVG 20010904//EN"
 "http://www.w3.org/TR/2001/REC-SVG-20010904/DTD/svg10.dtd">
<svg version="1.0" xmlns="http://www.w3.org/2000/svg"
 width="64.000000pt" height="64.000000pt" viewBox="0 0 64.000000 64.000000"
 preserveAspectRatio="xMidYMid meet">

<g transform="translate(0.000000,64.000000) scale(0.100000,-0.100000)"
fill="#000000" stroke="none">
<path d="M146 618 c-9 -12 -16 -28 -16 -35 0 -7 -10 -13 -22 -13 -30 -1 -55
-20 -68 -54 -13 -36 -13 -426 0 -462 20 -52 27 -53 280 -53 253 0 260 1 280
53 13 36 13 426 0 462 -13 33 -38 53 -66 54 -16 0 -23 8 -27 30 -11 55 -87 50
-87 -6 0 -19 -5 -24 -24 -24 -18 0 -25 7 -29 30 -11 55 -87 50 -87 -6 0 -19
-5 -24 -25 -24 -18 0 -25 5 -25 18 0 23 -30 52 -53 52 -9 0 -23 -10 -31 -22z
m54 -68 c0 -53 -2 -60 -20 -60 -17 0 -20 7 -20 53 0 56 4 67 27 67 9 0 13 -17
13 -60z m140 -1 c0 -52 -2 -60 -17 -57 -13 2 -19 15 -21 47 -4 52 2 71 23 71
12 0 15 -13 15 -61z m140 3 c0 -32 -3 -62 -7 -65 -13 -14 -33 17 -33 53 0 48
8 70 26 70 10 0 14 -15 14 -58z m80 -292 c0 -187 -1 -200 -19 -210 -12 -6
-101 -10 -221 -10 -120 0 -209 4 -221 10 -18 10 -19 23 -19 210 l0 200 240 0
240 0 0 -200z"/>
<path d="M120 345 c0 -34 1 -35 40 -35 39 0 40 1 40 35 0 34 -1 35 -40 35 -39
0 -40 -1 -40 -35z"/>
<path d="M230 345 c0 -34 1 -35 40 -35 39 0 40 1 40 35 0 34 -1 35 -40 35 -39
0 -40 -1 -40 -35z"/>
<path d="M330 345 c0 -34 1 -35 40 -35 39 0 40 1 40 35 0 34 -1 35 -40 35 -39
0 -40 -1 -40 -35z"/>
<path d="M440 345 c0 -34 1 -35 40 -35 39 0 40 1 40 35 0 34 -1 35 -40 35 -39
0 -40 -1 -40 -35z"/>
<path d="M120 255 c0 -34 1 -35 40 -35 39 0 40 1 40 35 0 34 -1 35 -40 35 -39
0 -40 -1 -40 -35z"/>
<path d="M230 256 c0 -35 1 -36 41 -36 39 0 40 1 37 33 -3 29 -6 32 -40 35
-37 3 -38 3 -38 -32z"/>
<path d="M337 283 c-4 -3 -7 -19 -7 -35 0 -26 3 -28 40 -28 39 0 40 1 40 35 0
33 -2 35 -33 35 -19 0 -37 -3 -40 -7z"/>
<path d="M440 255 c0 -34 1 -35 40 -35 39 0 40 1 40 35 0 34 -1 35 -40 35 -39
0 -40 -1 -40 -35z"/>
<path d="M120 155 c0 -34 1 -35 40 -35 39 0 40 1 40 35 0 34 -1 35 -40 35 -39
0 -40 -1 -40 -35z"/>
<path d="M230 155 c0 -34 1 -35 40 -35 39 0 40 1 40 35 0 34 -1 35 -40 35 -39
0 -40 -1 -40 -35z"/>
<path d="M330 155 c0 -34 1 -35 40 -35 39 0 40 1 40 35 0 34 -1 35 -40 35 -39
0 -40 -1 -40 -35z"/>
<path d="M440 155 c0 -34 1 -35 40 -35 39 0 40 1 40 35 0 34 -1 35 -40 35 -39
0 -40 -1 -40 -35z"/>
</g>
</svg>
